<svg version="1.2" xmlns="http://www.w3.org/2000/svg" viewBox="0 0 100 100" width="100" height="100">
	<title>opensea-seeklogo</title>
	<style>
		.s0 { fill: #ffffff } 
	</style>
	<path id="Layer" class="s0" d="m24.7 51.7l0.2-0.4l13-20.3c0.2-0.3 0.6-0.3 0.8 0c2.1 4.9 4 11 3.1 14.7c-0.3 1.6-1.4 3.7-2.5 5.6q-0.2 0.5-0.5 0.9q-0.1 0.2-0.4 0.2h-13.4c-0.3 0-0.5-0.4-0.3-0.7z" />
	<path id="Layer" class="s0" d="m82.6 55.5v3.2c0 0.2-0.1 0.3-0.2 0.4c-1 0.4-4.5 2-5.9 4c-3.7 5.1-6.5 12.4-12.7 12.4h-26.1c-9.2 0-16.7-7.5-16.7-16.8v-0.3c0-0.2 0.2-0.4 0.4-0.4h14.6c0.3 0 0.5 0.2 0.4 0.5c-0.1 1 0.1 1.9 0.6 2.8c0.8 1.7 2.6 2.8 4.5 2.8h7.2v-5.6h-7.1c-0.3 0-0.6-0.4-0.3-0.7q0.1-0.2 0.2-0.4c0.7-0.9 1.7-2.4 2.6-4.1c0.7-1.1 1.3-2.4 1.8-3.6q0.1-0.3 0.3-0.7q0.2-0.5 0.4-1.1q0.1-0.4 0.2-0.9q0.4-1.6 0.4-3.3q0-0.7-0.1-1.3q0-0.8-0.1-1.5q-0.1-0.6-0.2-1.3q-0.2-1-0.5-2v-0.2c-0.1-0.5-0.2-0.9-0.4-1.3q-0.6-2.1-1.3-4.1q-0.3-0.7-0.6-1.5q-0.5-1.1-0.9-2q-0.2-0.4-0.4-0.8q-0.2-0.5-0.4-0.9q-0.2-0.3-0.4-0.6l-0.8-1.7c-0.2-0.2 0.1-0.4 0.3-0.4l5.5 1.5q0 0 0 0l0.8 0.2l0.7 0.2l0.3 0.1v-3.2c0-1.6 1.3-2.9 2.9-2.9c0.7 0 1.5 0.3 2 0.8c0.5 0.6 0.8 1.3 0.8 2.1v4.8l0.6 0.2q0 0 0.1 0q0.2 0.2 0.6 0.5q0.3 0.3 0.7 0.6q0.8 0.6 1.9 1.6q0.2 0.2 0.5 0.5c0.9 0.8 1.9 1.8 2.8 2.9q0.4 0.4 0.8 0.9q0.5 0.5 0.8 1c0.4 0.4 0.7 0.8 1 1.3q0.2 0.3 0.5 0.7q0.5 0.9 1 1.8q0.2 0.4 0.4 0.9q0.6 1.2 0.9 2.5q0.1 0.2 0.1 0.5v0.1q0.1 0.3 0.1 0.7q0.1 1.3-0.2 2.6q-0.1 0.5-0.3 1.1q-0.1 0.5-0.4 1q-0.4 1.1-1.1 2.1q-0.2 0.4-0.4 0.8q-0.3 0.4-0.6 0.7q-0.3 0.5-0.7 0.9q-0.3 0.5-0.7 0.9q-0.5 0.6-1 1.2q-0.3 0.4-0.6 0.7q-0.4 0.4-0.7 0.7q-0.5 0.5-0.9 0.8l-0.5 0.5q-0.2 0.1-0.3 0.1h-4.4v5.6h5.5c1.2 0 2.4-0.4 3.3-1.2c0.4-0.3 1.8-1.5 3.5-3.3q0-0.1 0.2-0.2l15.2-4.4c0.3-0.1 0.5 0.2 0.5 0.5z" />
</svg>