<svg viewBox="0 0 512 512" xml:space="preserve" xmlns="http://www.w3.org/2000/svg" enable-background="new 0 0 512 512"><path d="M6 246.6h127.3c.9-37.4 6.9-73.9 17.7-108.8-31.4-8.6-61.9-21.1-90.9-37.5C28 140.8 8 191.4 6 246.6zM133.3 265.4H6c2 55.2 22 105.8 54.1 146.2 28.9-16.4 59.5-28.9 90.9-37.5-10.8-34.7-16.9-71.3-17.7-108.7zM246.6 265.4h-94.4c.9 35.8 6.7 70.8 17.2 104.2 25.4-5.6 51.3-8.8 77.2-9.4v-94.8zM246.6 246.6v-94.8c-25.9-.6-51.8-3.8-77.2-9.4a375.08 375.08 0 0 0-17.2 104.2h94.4zM246.6 379.1c-23.8.6-47.6 3.4-71 8.5 16 43.1 39.9 83.1 71 118.3V379.1zM342.4 142.4c-25.3 5.6-51.1 8.7-77 9.3v94.8h94.2c-.8-35.1-6.6-70.2-17.2-104.1zM265.4 132.9c23.8-.6 47.5-3.4 70.8-8.4C320.5 82 296.9 41.8 265.4 6.2v126.7zM246.6 132.9V6.1c-31.1 35.2-55 75.2-71 118.3 23.3 5 47.1 7.9 71 8.5zM157 119.9c14.6-40.1 35.8-77.7 62.9-111.5-57.8 8.4-109.2 36.5-147.2 77.3 26.9 14.9 55.2 26.3 84.3 34.2zM157 392.1c-29.1 7.8-57.4 19.2-84.3 34.1 37.9 40.8 89.4 69 147.2 77.3-27.1-33.7-48.2-71.3-62.9-111.4zM265.4 379.1v126.8c31.5-35.6 55.1-75.8 70.8-118.3-23.3-5-47-7.9-70.8-8.5zM354.7 392.1c-14.4 39.6-35.3 77.3-62.7 111.5 57.8-8.4 109.3-36.5 147.2-77.3-26.9-15-55.3-26.4-84.5-34.2zM354.7 119.9c29.2-7.9 57.6-19.3 84.6-34.2-38-40.8-89.4-69-147.2-77.3 27.4 34.2 48.2 72 62.6 111.5zM265.4 265.4v94.8c25.8.6 51.6 3.7 77 9.3 10.6-33.9 16.4-69 17.3-104.2h-94.3zM506 265.4H378.6c-.9 36.7-6.8 73.3-17.8 108.7 31.5 8.6 62.1 21.1 91.1 37.5 32.1-40.4 52.1-91 54.1-146.2zM378.6 246.6H506c-2-55.2-22-105.8-54.1-146.2-29 16.4-59.6 29-91.1 37.5 10.9 35.3 16.9 71.9 17.8 108.7z" fill="#ffffff" class="fill-000000"></path></svg>